<svg id="Layer_1" data-name="Layer 1" xmlns="http://www.w3.org/2000/svg" viewBox="47.35 36.45 305.3 104.25"><path d="M170.49,49.15c-5.5,0-9.53,1.89-12.24,5V49.27H145.93v61.57h12.32V70.69h0c.05-6.08,4.14-9.89,9.77-9.89s9.77,3.86,9.77,10-4.11,9.88-9.77,10c-3.45.09-6.51-2.59-7.78-3.38a.29.29,0,0,0-.44.31l.28,10.48c.07.66.16,1,.61,1.32a16.5,16.5,0,0,0,9.79,2.93c10.76,0,19.63-9.44,19.63-21.68S181.25,49.15,170.49,49.15Z"/><path d="M121.9,49.15c-5.5,0-9.52,1.89-12.23,5V49.27H97.35v61.57h12.32V70.69h0c.06-6.08,4.14-9.89,9.77-9.89s9.77,3.86,9.77,10-4.1,9.88-9.77,10c-3.44.09-6.51-2.59-7.77-3.38a.29.29,0,0,0-.44.31l.28,10.48c.06.66.16,1,.61,1.32a16.45,16.45,0,0,0,9.78,2.93c10.76,0,19.63-9.44,19.63-21.68S132.66,49.15,121.9,49.15Z"/><path d="M67,92.51c5.5,0,9.52-1.89,12.23-5v5H91.54V49.27H79.22V71h0c-.06,6.08-4.14,9.89-9.77,9.89s-9.77-3.86-9.77-10,4.1-9.88,9.77-10c3.44-.09,6.51,2.59,7.77,3.38a.29.29,0,0,0,.44-.31L77.38,53.4c-.06-.66-.16-1-.61-1.32A16.38,16.38,0,0,0,67,49.15c-10.76,0-19.63,9.44-19.63,21.68S56.23,92.51,67,92.51Z"/><path d="M202,57.17V49.32h-5.64V92.51H202V69.05c0-11.88,8.58-14.19,19-14.19V49.39C214.6,49.39,207,50,202,57.17Z"/><path d="M333.61,57.17V49.32H328V92.51h5.64V69.05c0-11.88,8.59-14.19,19-14.19V49.39C346.23,49.39,338.67,50,333.61,57.17Z"/><path d="M301.84,49.26c-6.3,0-11.37,2-15.38,6.13a20.91,20.91,0,0,0-6,15.3,20.93,20.93,0,0,0,6.05,15.38c4,4,9.25,6.05,15.71,6.05,7.94,0,14.4-3.6,18-9.4l-4.75-2.79c-2.29,4.18-6.95,7-13.17,7-8.75,0-15.21-5.24-16.28-13.5H322c.08-1.06.16-2,.16-2.54a22.1,22.1,0,0,0-5.65-15.13C312.8,51.39,307.9,49.26,301.84,49.26Zm-15.79,18.9c1.07-8.1,7.28-13.67,15.79-13.67a14.65,14.65,0,0,1,9.74,3.6c2.78,2.38,4.41,5.73,5,10.07Z"/><rect x="226.58" y="49.27" width="5.64" height="43.24"/><polygon points="258.74 86.16 243.78 49.32 237.8 49.32 255.5 92.51 261.97 92.51 279.68 49.32 273.7 49.32 258.74 86.16"/><rect x="226.58" y="36.46" width="5.64" height="5.64"/><path d="M274.43,126.55a5.94,5.94,0,0,0-2.23-.48c-2.3,0-3.6,2.05-3.6,4.18s1.08,4.19,3.73,4.19a4.28,4.28,0,0,0,2.21-.64l.15,1.84a6.33,6.33,0,0,1-2.58.46,5.65,5.65,0,0,1-5.7-5.85,5.52,5.52,0,0,1,5.7-5.85,7.8,7.8,0,0,1,2.5.44Z"/><path d="M281.13,124.4a5.51,5.51,0,0,1,5.68,5.85,5.69,5.69,0,1,1-11.37,0A5.51,5.51,0,0,1,281.13,124.4Zm0,10c2.41,0,3.49-2.2,3.49-4.19s-1.29-4.18-3.49-4.18-3.5,2.05-3.5,4.18S278.7,134.44,281.13,134.44Z"/><path d="M288.67,124.66h1.93v1.62h0a3.78,3.78,0,0,1,3.55-1.88,3.3,3.3,0,0,1,3.18,2.17,4,4,0,0,1,3.46-2.17c2.85,0,3.88,1.84,3.88,4.27v7.17h-2.06v-6.66c0-1.38-.33-3.11-2-3.11-2.11,0-2.94,2.05-2.94,4.14v5.63h-2.06v-6.66c0-1.38-.33-3.11-2-3.11-2.11,0-2.94,2.05-2.94,4.14v5.63h-2.06Z"/><path d="M307.29,124.66h2v1.58h0a4.48,4.48,0,0,1,3.79-1.84c3.24,0,4.82,2.65,4.82,5.65s-1.42,6-4.8,6a4,4,0,0,1-3.72-1.8h0v6.14h-2.06Zm5.37,1.41c-2.23,0-3.31,2.12-3.31,4.2,0,1.86,1,4.17,3.29,4.17s3.13-2.48,3.09-4.23C315.77,128.19,314.9,126.07,312.66,126.07Z"/><path d="M320.33,125.45a7.16,7.16,0,0,1,3.68-1c3.2,0,4.49,1.58,4.49,4.62v4.63a18.3,18.3,0,0,0,.09,2.19h-1.93v-1.45h0a4.14,4.14,0,0,1-3.46,1.71c-2.41,0-4.1-1-4.1-3.48,0-2.81,3.07-3.68,5.19-3.68.81,0,1.38,0,2.19,0,0-1.93-.7-2.91-2.76-2.91a5.24,5.24,0,0,0-3.24,1.13Zm6.11,5.06c-.44,0-.87,0-1.31,0-1.12,0-3.88.17-3.88,2.15a2,2,0,0,0,2.08,1.82,2.82,2.82,0,0,0,3.11-2.94Z"/><path d="M331.11,124.66h2v1.78h0a4,4,0,0,1,3.66-2c2.89,0,4.18,1.8,4.18,4.8v6.64h-2.06v-5.79c0-2.6-.57-3.88-2.37-4-2.34,0-3.39,1.88-3.39,4.6v5.17h-2.06Z"/><path d="M342.79,138.86a3,3,0,0,0,1,.18c1.84,0,2.45-2.55,2.45-2.76a6,6,0,0,0-.39-1.19L342,124.66h2.26l3,9.25h0l3.07-9.25h2.08l-4.12,11.42c-.77,2.15-1.58,4.62-4.29,4.62a7.37,7.37,0,0,1-1.41-.15Z"/><path d="M147.2,125.45a7.16,7.16,0,0,1,3.68-1c3.2,0,4.5,1.58,4.5,4.62v4.63a19.35,19.35,0,0,0,.08,2.19h-1.93v-1.45h0A4.14,4.14,0,0,1,150,136.1c-2.41,0-4.1-1-4.1-3.48,0-2.81,3.07-3.68,5.19-3.68.82,0,1.38,0,2.2,0,0-1.93-.71-2.91-2.77-2.91a5.24,5.24,0,0,0-3.24,1.13Zm6.12,5.06c-.44,0-.88,0-1.32,0-1.12,0-3.88.17-3.88,2.15a2,2,0,0,0,2.08,1.82,2.83,2.83,0,0,0,3.12-2.94Z"/><path d="M158,124.66h2v1.78h0a4,4,0,0,1,3.66-2c2.89,0,4.18,1.8,4.18,4.8v6.64H165.8v-5.79c0-2.6-.57-3.88-2.36-4-2.35,0-3.4,1.88-3.4,4.6v5.17H158Z"/><path d="M189.88,125.53v-.86h-3.26v14.72h3.22v-4.51l.22.14a4.3,4.3,0,0,0,6.45-1.07,7.62,7.62,0,0,0,.57-6.39A4.36,4.36,0,0,0,189.88,125.53Zm3.93,6.73a1.89,1.89,0,0,1-1.91,1.13,1.94,1.94,0,0,1-1.77-1.35,4.69,4.69,0,0,1,.06-3.88,2,2,0,0,1,1.92-1.22,1.86,1.86,0,0,1,1.78,1.17A4.57,4.57,0,0,1,193.81,132.26Z"/><path d="M177.08,124.68c-2.38.68-3.68,2.74-3.66,5.44,0,2.11.64,3.94,2.58,5a6.82,6.82,0,0,0,6,.39c4-1.52,4.28-7,1.89-9.4C182,124.17,179.56,124,177.08,124.68Zm3.8,8.27a2.57,2.57,0,0,1-3.84-1.06,4.25,4.25,0,0,1,.09-3.62,2.31,2.31,0,0,1,2.35-1.33c1,0,2.61.71,2.61,3.1A3.27,3.27,0,0,1,180.88,133Z"/><path d="M209.79,130.82a9.45,9.45,0,0,0-.66-3.58,4.62,4.62,0,0,0-3.32-2.73,7.2,7.2,0,0,0-3.45.09,4.87,4.87,0,0,0-3.49,3.24,7.14,7.14,0,0,0-.38,3.14,4.88,4.88,0,0,0,3.29,4.63,7.1,7.1,0,0,0,5.95-.5,4.38,4.38,0,0,0,1.9-2.24l-2.43-1.27c-1.23,1.78-2.45,2.33-3.86,1.77a2.4,2.4,0,0,1-1.44-2.55Zm-7.93-2.09a2.29,2.29,0,0,1,2.39-2.16,2.06,2.06,0,0,1,2.08,2.16Z"/><path d="M237.19,131.59c-.92,1.87-2.07,2.19-3.55,1.79a2.31,2.31,0,0,1-1.55-2.57H240a8.56,8.56,0,0,0-.74-3.75,4.52,4.52,0,0,0-3.25-2.58,7.42,7.42,0,0,0-3.41.08,4.79,4.79,0,0,0-3.36,2.9,7.19,7.19,0,0,0-.37,4.53,4.75,4.75,0,0,0,3.82,3.82,8.19,8.19,0,0,0,3.16,0,4.92,4.92,0,0,0,3.79-3Zm-2.79-5a2.08,2.08,0,0,1,2.15,2.16h-4.41A2.19,2.19,0,0,1,234.4,126.57Z"/><path d="M219.77,124.87a4.36,4.36,0,0,0-3.12-.44,3.4,3.4,0,0,0-2.13,1.16l0-.93h-3.26v11.05h3.25c0-.13,0-.21,0-.29,0-1.93,0-3.87,0-5.8a12.79,12.79,0,0,1,.09-1.38,1.34,1.34,0,0,1,1-1.21,1.62,1.62,0,0,1,1.8.38,2.41,2.41,0,0,1,.46,1.35c.06,2.12,0,4.24.05,6.36,0,.2,0,.4,0,.6H221a.33.33,0,0,0,.05-.12c0-2.83,0-5.67,0-8.51A2.56,2.56,0,0,0,219.77,124.87Z"/><path d="M250.17,124.63h-3.74l-1.58,2.5-.68-1c-.35-.49-1-1.49-1-1.49l-3.77,0,3.61,5.31-3.66,5.81H243l2-3,2.07,3h3.81l-4.08-5.84Z"/><path d="M255.36,122.3h-3.25v2.29h-.52L250,127h2.05v.65c0,1.9,0,3.8,0,5.7a2.24,2.24,0,0,0,2.06,2.39,17.89,17.89,0,0,0,3.13,0s0-1.79,0-2.6H255.9c-.54,0-.62-.29-.62-.68,0-1.47,0-5.48,0-5.48h2.19v-2.3h-2.15Z"/><path d="M226.64,133.1a.63.63,0,0,1-.66-.7v-5.47h1.94s1.1-1.74,1.49-2.34H226v-2.3h-3.23v9.9c0,.4,0,.79,0,1.18a2.34,2.34,0,0,0,2.44,2.45c.89,0,2.74-.08,2.74-.08s0-1.85,0-2.65Z"/><polygon points="259.37 124.98 260.13 124.98 260.13 126.92 260.47 126.92 260.47 124.98 261.23 124.98 261.23 124.63 259.37 124.63 259.37 124.98"/><polygon points="263.48 124.63 263.3 124.63 263.13 124.63 262.55 126.46 261.96 124.63 261.8 124.63 261.62 124.63 261.46 124.63 261.46 126.92 261.8 126.92 261.8 125.19 262.35 126.92 262.4 126.92 262.69 126.92 262.74 126.92 263.3 125.17 263.3 126.92 263.65 126.92 263.65 124.63 263.48 124.63"/></svg>